<svg width="81" height="27" viewBox="0 0 81 27" fill="none" xmlns="http://www.w3.org/2000/svg">
<g clip-path="url(#clip0_1680_499)">
<path d="M50.0012 3.89731V0.5H54.0941L54.1243 3.92399L50.0012 3.89731ZM34.5472 26.5C33.8542 26.5 33.2014 26.3618 32.589 26.0853C31.9766 25.8089 31.4826 25.4039 31.1071 24.8729C30.7316 24.3394 30.5426 23.7016 30.5426 22.9596C30.5426 22.123 30.7946 21.4513 31.2987 20.9469C31.8027 20.4425 32.3723 20.0667 33.0048 19.8193C32.5512 19.572 32.1782 19.2495 31.8934 18.8494C31.6061 18.4493 31.4625 17.9837 31.4625 17.4502C31.4625 16.7082 31.7447 16.1044 32.3067 15.6388C32.8713 15.1732 33.519 14.8725 34.2498 14.7391C33.519 14.3026 32.9494 13.7449 32.5436 13.0684C32.1379 12.3918 31.9363 11.6377 31.9363 10.7986C31.9363 9.7147 32.2185 8.8005 32.7805 8.05848C33.3451 7.31645 34.1541 6.75145 35.2126 6.36103C36.2711 5.97062 37.5211 5.77663 38.9652 5.77663C39.5398 5.77663 40.0766 5.80573 40.5806 5.8615C41.0847 5.9197 41.5459 6.01427 41.9592 6.14764C42.6901 5.72813 43.1891 5.26739 43.4562 4.76301C43.7234 4.25863 43.867 3.85367 43.8872 3.55055H47.7129C47.7129 4.25378 47.5793 4.86243 47.3122 5.37652C47.045 5.8906 46.6645 6.31253 46.1705 6.64717C45.6765 6.97939 45.0818 7.22188 44.3912 7.37465C44.9053 7.79416 45.301 8.29854 45.5782 8.8878C45.8555 9.47706 45.9941 10.1148 45.9941 10.8011C45.9941 11.8656 45.7269 12.7749 45.1926 13.5267C44.6584 14.2784 43.9023 14.8531 42.9244 15.2532C41.9466 15.6533 40.7747 15.8522 39.4087 15.8522H37.0347C36.5609 15.8522 36.203 15.9322 35.9661 16.0947C35.7292 16.2571 35.6108 16.4899 35.6108 16.793C35.6108 17.0404 35.7141 17.2538 35.9233 17.4356C36.1299 17.6175 36.4727 17.7072 36.9465 17.7072H43.4436C44.7491 17.7072 45.7925 18.0928 46.5737 18.8639C47.355 19.635 47.7456 20.6196 47.7456 21.8175C47.7456 22.7317 47.4986 23.5392 47.0047 24.2424C46.5107 24.9456 45.8277 25.4985 44.9583 25.8986C44.0888 26.2987 43.0908 26.4976 41.9617 26.4976H34.5472V26.5ZM36.2685 23.8471H41.7551C42.1104 23.8471 42.428 23.7865 42.7052 23.6604C42.9824 23.5367 43.1991 23.3646 43.3579 23.1463C43.5167 22.9281 43.5948 22.6759 43.5948 22.3898C43.5948 21.8951 43.4361 21.5241 43.121 21.2767C42.8035 21.0294 42.4103 20.9057 41.934 20.9057H36.2685C35.7947 20.9057 35.4041 21.0391 35.0966 21.3058C34.7892 21.5726 34.638 21.9242 34.638 22.3607C34.638 22.7971 34.7917 23.156 35.0966 23.43C35.4016 23.7089 35.7922 23.8471 36.2685 23.8471ZM38.9677 13.2866C39.9355 13.2866 40.6739 13.0732 41.1779 12.644C41.682 12.2148 41.934 11.6013 41.934 10.8035C41.934 10.0033 41.682 9.38976 41.1779 8.96297C40.6739 8.53376 39.938 8.32037 38.9677 8.32037C38.0176 8.32037 37.2917 8.53376 36.7877 8.96297C36.2837 9.39218 36.0316 10.0057 36.0316 10.8035C36.0316 11.3176 36.14 11.7638 36.3567 12.1445C36.5735 12.5252 36.9011 12.8113 37.3346 13.0005C37.7706 13.192 38.315 13.2866 38.9677 13.2866ZM2.51013 21.1361V1.55484H10.8168C12.9338 1.55484 14.7332 1.90645 16.2151 2.60968C17.6995 3.31291 18.8412 4.38472 19.6401 5.82028C20.439 7.25583 20.8422 9.09877 20.8422 11.3418C20.8422 13.5679 20.4415 15.4036 19.6401 16.8512C18.8387 18.2989 17.697 19.3732 16.2151 20.0764C14.7307 20.7796 12.9313 21.1312 10.8168 21.1312H2.51013V21.1361ZM6.93061 17.6248H10.7865C11.6762 17.6248 12.4675 17.5011 13.1606 17.2538C13.8537 17.0064 14.4258 16.6403 14.8819 16.1553C15.3356 15.6703 15.6833 15.0616 15.9202 14.3293C16.1571 13.597 16.2756 12.7458 16.2756 11.7759V10.9199C16.2756 9.94992 16.1571 9.09877 15.9202 8.36644C15.6833 7.63412 15.3381 7.02546 14.8819 6.54048C14.4283 6.05549 13.8537 5.68448 13.1606 5.42744C12.4675 5.1704 11.6787 5.04188 10.7865 5.04188H6.93061V17.6248ZM24.0757 21.1361V6.12339H28.1685L28.1988 21.1361H24.0757ZM24.0757 3.89731V0.5H28.1685L28.1988 3.92399L24.0757 3.89731ZM50.0012 21.1361V6.12339H54.0941L54.1243 21.1361H50.0012Z" fill="black"/>
<path d="M73.0185 18.3959C73.9283 18.3959 74.6541 18.2334 75.1984 17.9109C75.7428 17.5884 76.1435 17.0937 76.4006 16.4269C76.6577 15.76 76.7862 14.9428 76.7862 13.9729V13.289C76.7862 12.3191 76.6577 11.4994 76.4006 10.835C76.1435 10.1682 75.7428 9.66862 75.1984 9.33641C74.6541 9.0042 73.9283 8.83688 73.0185 8.83688C72.1288 8.83688 71.4106 9.0042 70.8687 9.33641C70.3243 9.66862 69.9236 10.1682 69.6666 10.835C69.4095 11.5019 69.281 12.3191 69.281 13.289V13.9729C69.281 14.9428 69.4095 15.7625 69.6666 16.4269C69.9236 17.0937 70.3243 17.5884 70.8687 17.9109C71.4131 18.2334 72.1288 18.3959 73.0185 18.3959ZM73.0185 21.478C71.3173 21.478 69.8732 21.1967 68.6887 20.6365C67.5017 20.0764 66.602 19.2107 65.9895 18.0395C65.3771 16.8682 65.0697 15.3987 65.0697 13.6309C65.0697 11.8244 65.3771 10.3452 65.9895 9.19334C66.602 8.0415 67.5017 7.18551 68.6887 6.62535C69.8757 6.06519 71.3198 5.7839 73.0185 5.7839C74.7599 5.7839 76.2166 6.06519 77.3936 6.62535C78.5705 7.18551 79.4652 8.04393 80.0776 9.19334C80.69 10.3452 80.9975 11.8244 80.9975 13.6309C80.9975 15.4011 80.69 16.8706 80.0776 18.0395C79.4652 19.2107 78.5705 20.0764 77.3936 20.6365C76.2191 21.1967 74.7599 21.478 73.0185 21.478ZM57.9223 21.1361V0.5H62.0152L62.0454 21.1361H57.9223ZM0 12.6731V9.27579H9.35507L9.42312 12.6998L0 12.6731Z" fill="#55F230"/>
</g>
<defs>
<clipPath id="clip0_1680_499">
<rect width="81" height="26" fill="white" transform="translate(0 0.5)"/>
</clipPath>
</defs>
</svg>
