<svg width="39" height="39" viewBox="0 0 39 39" fill="none" xmlns="http://www.w3.org/2000/svg">
<rect width="39" height="39" rx="19.5" fill="#FDFDFD"/>
<path d="M22 15H22.01M19.5 28H13C12.2044 28 11.4413 27.6839 10.8787 27.1213C10.3161 26.5587 10 25.7956 10 25V13C10 12.2044 10.3161 11.4413 10.8787 10.8787C11.4413 10.3161 12.2044 10 13 10H25C25.7956 10 26.5587 10.3161 27.1213 10.8787C27.6839 11.4413 28 12.2044 28 13V19.5M10 23L15 18C15.928 17.107 17.072 17.107 18 18L21.5 21.5M21 21L22 20C22.679 19.347 23.473 19.171 24.214 19.474M26 29V23M26 23L29 26M26 23L23 26" stroke="#3DCE15" stroke-width="1.9" stroke-linecap="round" stroke-linejoin="round"/>
</svg>
