<svg width="31" height="30" viewBox="0 0 31 30" fill="none" xmlns="http://www.w3.org/2000/svg">
<rect x="0.5" width="30" height="30" rx="15" fill="#3DCE15"/>
<path d="M22.6786 6.34521H9.32143C8.29688 6.34521 7.5 7.18004 7.5 8.16664V21.5238C7.5 22.5483 8.29688 23.3452 9.32143 23.3452H14.5201V17.5774H12.1295V14.8452H14.5201V12.7961C14.5201 10.4434 15.9241 9.1153 18.0491 9.1153C19.1116 9.1153 20.1741 9.30504 20.1741 9.30504V11.6198H18.9978C17.8214 11.6198 17.442 12.3408 17.442 13.0997V14.8452H20.0603L19.6429 17.5774H17.442V23.3452H22.6786C23.6652 23.3452 24.5 22.5483 24.5 21.5238V8.16664C24.5 7.18004 23.6652 6.34521 22.6786 6.34521Z" fill="#FDFDFD"/>
</svg>
