<svg width="22" height="22" viewBox="0 0 22 22" fill="none" xmlns="http://www.w3.org/2000/svg">
    <g clip-path="url(#clip0_1200_1279)">
        <path d="M7.8607 7.78101C8.04791 7.20157 8.3919 6.68528 8.85455 6.28936C9.3172 5.89343 9.88043 5.63333 10.4818 5.53788C11.0832 5.44243 11.6993 5.51536 12.2618 5.74858C12.8243 5.9818 13.3113 6.36621 13.6687 6.85921C14.0266 7.35149 14.2413 7.93315 14.2892 8.53988C14.3371 9.1466 14.2163 9.75476 13.9401 10.2971C13.6639 10.8394 13.2432 11.2948 12.7243 11.613C12.2054 11.9311 11.6087 12.0995 11.0001 12.0996V13.1996M11.0551 16.4996V16.6096H10.9451V16.4996H11.0551ZM1.1001 17.3796V4.61961C1.1001 3.38761 1.1001 2.77161 1.3399 2.30081C1.5511 1.88611 1.8866 1.55061 2.3013 1.33941C2.7721 1.09961 3.3881 1.09961 4.6201 1.09961H17.3801C18.6121 1.09961 19.2281 1.09961 19.6978 1.33941C20.1125 1.55061 20.4491 1.88611 20.6603 2.30081C20.9001 2.77051 20.9001 3.38651 20.9001 4.61631V17.384C20.9001 18.6138 20.9001 19.2287 20.6603 19.6984C20.449 20.1124 20.1121 20.449 19.6978 20.6598C19.2281 20.8996 18.6132 20.8996 17.3834 20.8996H4.6168C3.387 20.8996 2.771 20.8996 2.3013 20.6598C1.88736 20.4489 1.55082 20.1123 1.3399 19.6984C1.1001 19.2276 1.1001 18.6116 1.1001 17.3796Z"
              stroke="currentColor" stroke-width="1.9" stroke-linecap="round" stroke-linejoin="round"/>
    </g>
    <defs>
        <clipPath id="clip0_1200_1279">
            <rect width="22" height="22" fill="white"/>
        </clipPath>
    </defs>
</svg>
