<svg width="31" height="30" viewBox="0 0 31 30" fill="none" xmlns="http://www.w3.org/2000/svg">
<rect x="0.5" width="30" height="30" rx="15" fill="#3DCE15"/>
<path d="M16.019 10.4624C13.5904 10.4624 11.6551 12.4356 11.6551 14.8262C11.6551 17.2548 13.5904 19.1901 16.019 19.1901C18.4096 19.1901 20.3828 17.2548 20.3828 14.8262C20.3828 12.4356 18.4096 10.4624 16.019 10.4624ZM16.019 17.6722C14.4632 17.6722 13.173 16.42 13.173 14.8262C13.173 13.2704 14.4252 12.0182 16.019 12.0182C17.5748 12.0182 18.827 13.2704 18.827 14.8262C18.827 16.42 17.5748 17.6722 16.019 17.6722ZM21.5592 10.3106C21.5592 9.74142 21.1038 9.28606 20.5346 9.28606C19.9654 9.28606 19.51 9.74142 19.51 10.3106C19.51 10.8798 19.9654 11.3352 20.5346 11.3352C21.1038 11.3352 21.5592 10.8798 21.5592 10.3106ZM24.4431 11.3352C24.3672 9.9691 24.0636 8.75481 23.077 7.76821C22.0904 6.7816 20.8761 6.47803 19.51 6.40213C18.106 6.32624 13.894 6.32624 12.49 6.40213C11.1239 6.47803 9.94754 6.7816 8.92299 7.76821C7.93638 8.75481 7.63281 9.9691 7.55692 11.3352C7.48103 12.7392 7.48103 16.9512 7.55692 18.3553C7.63281 19.7213 7.93638 20.8977 8.92299 21.9222C9.94754 22.9088 11.1239 23.2124 12.49 23.2883C13.894 23.3642 18.106 23.3642 19.51 23.2883C20.8761 23.2124 22.0904 22.9088 23.077 21.9222C24.0636 20.8977 24.3672 19.7213 24.4431 18.3553C24.519 16.9512 24.519 12.7392 24.4431 11.3352ZM22.6217 19.8352C22.356 20.5941 21.7489 21.1633 21.0279 21.4669C19.8895 21.9222 17.2333 21.8084 16.019 21.8084C14.7667 21.8084 12.1105 21.9222 11.01 21.4669C10.2511 21.1633 9.68192 20.5941 9.37835 19.8352C8.92299 18.7347 9.03683 16.0785 9.03683 14.8262C9.03683 13.612 8.92299 10.9557 9.37835 9.81731C9.68192 9.09633 10.2511 8.52713 11.01 8.22356C12.1105 7.76821 14.7667 7.88205 16.019 7.88205C17.2333 7.88205 19.8895 7.76821 21.0279 8.22356C21.7489 8.48919 22.3181 9.09633 22.6217 9.81731C23.077 10.9557 22.9632 13.612 22.9632 14.8262C22.9632 16.0785 23.077 18.7347 22.6217 19.8352Z" fill="#FDFDFD"/>
</svg>
