<svg width="31" height="30" viewBox="0 0 31 30" fill="none" xmlns="http://www.w3.org/2000/svg">
<rect x="0.5" width="30" height="30" rx="15" fill="#3DCE15"/>
<path d="M11.2946 22.3452V10.9739H7.76562V22.3452H11.2946ZM9.51116 9.4526C10.6496 9.4526 11.5603 8.50181 11.5603 7.36087C11.5603 6.25797 10.6496 5.34521 9.51116 5.34521C8.41071 5.34521 7.5 6.25797 7.5 7.36087C7.5 8.50181 8.41071 9.4526 9.51116 9.4526ZM24.5 22.3452V16.1081C24.5 13.0656 23.817 10.7076 20.25 10.7076C18.5424 10.7076 17.404 11.6584 16.9107 12.5331H16.8728V10.9739H13.4955V22.3452H17.0246V16.7166C17.0246 15.2334 17.2902 13.8262 19.1116 13.8262C20.933 13.8262 20.971 15.4996 20.971 16.8307V22.3452H24.5Z" fill="#FDFDFD"/>
</svg>
