<svg width="20" height="22" viewBox="0 0 20 22" fill="none" xmlns="http://www.w3.org/2000/svg">
    <g clip-path="url(#clip0_1200_505)">
        <path d="M2.42535 -0.185425C1.86214 -0.185425 1.322 0.0343153 0.923745 0.425455C0.525493 0.816595 0.301758 1.34709 0.301758 1.90025V19.9761C0.301758 20.5293 0.525493 21.0597 0.923745 21.4509C1.322 21.842 1.86214 22.0618 2.42535 22.0618H12.3355C12.8987 22.0618 13.4388 21.842 13.8371 21.4509C14.2353 21.0597 14.4591 20.5293 14.4591 19.9761V17.8904C14.4591 17.706 14.3845 17.5292 14.2517 17.3988C14.119 17.2684 13.9389 17.1952 13.7512 17.1952C13.1665 17.1952 12.7927 17.0534 12.5393 16.8671C12.2803 16.6766 12.0835 16.3915 11.9391 16.0008C11.6361 15.1832 11.6276 14.1001 11.6276 13.0238C11.6276 12.9324 11.6092 12.8418 11.5735 12.7574C11.5378 12.6729 11.4854 12.5962 11.4195 12.5316L11.0146 12.1326L9.29731 10.446C8.63616 9.79661 8.44221 9.3614 8.4054 9.11807C8.37708 8.92341 8.43654 8.79271 8.57812 8.65923C8.88108 8.37418 9.09769 8.18091 9.34261 8.12251C9.48843 8.08636 9.82113 8.06133 10.4186 8.6481L14.6658 12.8195C14.7985 12.95 14.9786 13.0234 15.1664 13.0235C15.2594 13.0236 15.3515 13.0057 15.4375 12.9708C15.5235 12.9359 15.6016 12.8847 15.6674 12.8201C15.7332 12.7556 15.7854 12.679 15.8211 12.5946C15.8567 12.5102 15.8751 12.4198 15.8752 12.3284C15.8753 12.2371 15.857 12.1466 15.8215 12.0622C15.7859 11.9778 15.7338 11.901 15.6681 11.8364L14.4591 10.6503V6.35942L18.0833 9.91897C18.2808 10.1126 18.4374 10.3426 18.5443 10.5957C18.6511 10.8489 18.7062 11.1202 18.7063 11.3942V21.3665C18.7063 21.5509 18.7808 21.7278 18.9136 21.8581C19.0463 21.9885 19.2264 22.0618 19.4141 22.0618C19.6019 22.0618 19.7819 21.9885 19.9147 21.8581C20.0474 21.7278 20.122 21.5509 20.122 21.3665V11.3942C20.1218 10.4727 19.749 9.58901 19.0857 8.93731L14.4591 4.39333V1.90025C14.4591 1.34709 14.2353 0.816595 13.8371 0.425455C13.4388 0.0343153 12.8987 -0.185425 12.3355 -0.185425H2.42535ZM13.0433 4.68115V9.2599L11.4209 7.66505C10.6012 6.86137 9.78715 6.58467 9.00708 6.77099C8.85384 6.80814 8.70524 6.86177 8.56396 6.9309C7.93112 6.75085 7.26431 6.71782 6.61624 6.83443C5.96817 6.95103 5.35659 7.21407 4.82983 7.60276C4.30307 7.99144 3.87557 8.49513 3.58112 9.074C3.28667 9.65288 3.13333 10.2911 3.13322 10.9382C3.13316 11.7446 3.37108 12.5337 3.81819 13.21C4.2653 13.8863 4.90242 14.4209 5.65244 14.749C6.40246 15.0771 7.23323 15.1846 8.04419 15.0586C8.85515 14.9325 9.61153 14.5783 10.2218 14.0389C10.2458 14.8426 10.328 15.7213 10.6083 16.4763C10.8178 17.0422 11.1519 17.5831 11.6899 17.978L11.6984 17.9864C11.2673 18.1195 10.8907 18.3843 10.6233 18.7421C10.356 19.1 10.2118 19.5322 10.2119 19.9761V20.6713H4.54895V19.9761C4.54895 19.4229 4.32521 18.8924 3.92696 18.5013C3.52871 18.1102 2.98857 17.8904 2.42535 17.8904H1.71749V3.98592H2.42535C2.98857 3.98592 3.52871 3.76618 3.92696 3.37504C4.32521 2.9839 4.54895 2.4534 4.54895 1.90025V1.20502H10.2119V1.90025C10.2119 2.4534 10.4356 2.9839 10.8339 3.37504C11.2321 3.76618 11.7723 3.98592 12.3355 3.98592H13.0433V4.68115ZM13.0433 19.9761V19.9886C13.04 20.1708 12.9639 20.3445 12.8316 20.4721C12.6992 20.5998 12.521 20.6713 12.3355 20.6713H11.6276V19.9761C11.6276 19.7917 11.7022 19.6149 11.8349 19.4845C11.9677 19.3541 12.1477 19.2809 12.3355 19.2809H13.0433V19.9761ZM4.54895 10.9382C4.54896 10.231 4.82331 9.55033 5.31617 9.03475C5.80904 8.51917 6.48339 8.20739 7.20203 8.16283C7.02648 8.48264 6.93729 8.87196 7.00524 9.32108C7.10576 9.99128 7.54039 10.6879 8.29497 11.429L9.57904 12.6901C9.21041 13.1363 8.71013 13.4593 8.14697 13.6149C7.5838 13.7704 6.9854 13.7509 6.43404 13.5588C5.88267 13.3668 5.4054 13.0117 5.06785 12.5424C4.73029 12.0732 4.54902 11.5127 4.54895 10.9382ZM3.13322 1.20502V1.90025C3.13322 2.08463 3.05864 2.26147 2.92589 2.39185C2.79314 2.52223 2.61309 2.59547 2.42535 2.59547H1.71749V1.90025C1.71749 1.71586 1.79207 1.53903 1.92482 1.40865C2.05757 1.27827 2.23762 1.20502 2.42535 1.20502H3.13322ZM1.71749 19.2809H2.42535C2.61309 19.2809 2.79314 19.3541 2.92589 19.4845C3.05864 19.6149 3.13322 19.7917 3.13322 19.9761V20.6713H2.42535C2.23762 20.6713 2.05757 20.5981 1.92482 20.4677C1.79207 20.3373 1.71749 20.1605 1.71749 19.9761V19.2809ZM13.0433 2.59547H12.3355C12.1477 2.59547 11.9677 2.52223 11.8349 2.39185C11.7022 2.26147 11.6276 2.08463 11.6276 1.90025V1.20502H12.3355C12.5232 1.20502 12.7033 1.27827 12.836 1.40865C12.9688 1.53903 13.0433 1.71586 13.0433 1.90025V2.59547Z"
              fill="currentColor"/>
    </g>
    <defs>
        <clipPath id="clip0_1200_505">
            <rect width="20" height="22" fill="white"/>
        </clipPath>
    </defs>
</svg>
