<svg width="22" height="22" viewBox="0 0 22 22" fill="none" xmlns="http://www.w3.org/2000/svg">
    <path d="M9.42105 0.1C8.924 0.1 8.52105 0.502944 8.52105 1C8.52105 1.49706 8.924 1.9 9.42105 1.9V0.1ZM9.42105 20.1C8.924 20.1 8.52105 20.5029 8.52105 21C8.52105 21.4971 8.924 21.9 9.42105 21.9V20.1ZM14.3333 11.9C14.8304 11.9 15.2333 11.4971 15.2333 11C15.2333 10.5029 14.8304 10.1 14.3333 10.1V11.9ZM0.363604 10.3636C0.012132 10.7151 0.012132 11.2849 0.363604 11.6364L6.09117 17.364C6.44264 17.7154 7.01249 17.7154 7.36396 17.364C7.71543 17.0125 7.71543 16.4426 7.36396 16.0912L2.27279 11L7.36396 5.90883C7.71543 5.55736 7.71543 4.98751 7.36396 4.63604C7.01249 4.28457 6.44264 4.28457 6.09117 4.63604L0.363604 10.3636ZM9.42105 1.9H19.9474V0.1H9.42105V1.9ZM20.1 2V20H21.9V2H20.1ZM19.9474 20.1H9.42105V21.9H19.9474V20.1ZM20.1 20C20.1 20.0123 20.0963 20.0314 20.0718 20.0546C20.0465 20.0786 20.0045 20.1 19.9474 20.1V21.9C20.9817 21.9 21.9 21.0923 21.9 20H20.1ZM19.9474 1.9C20.0045 1.9 20.0465 1.92138 20.0718 1.94539C20.0963 1.96865 20.1 1.98773 20.1 2H21.9C21.9 0.907715 20.9817 0.1 19.9474 0.1V1.9ZM14.3333 10.1H1V11.9H14.3333V10.1Z"
          fill="currentColor"/>
</svg>
