<svg width="20" height="22" viewBox="0 0 20 22" fill="none" xmlns="http://www.w3.org/2000/svg">
    <path d="M19.5 4.71429C19.5 6.73933 17.8459 8.38095 15.8056 8.38095C13.7652 8.38095 12.1111 6.73933 12.1111 4.71429C12.1111 2.68924 13.7652 1.04762 15.8056 1.04762C17.8459 1.04762 19.5 2.68924 19.5 4.71429Z"
          fill="#3DCE15"/>
    <path d="M17.3889 15.7143V10.2667C16.8611 10.3714 16.3333 10.4762 15.8056 10.4762H15.2778V16.7619H4.72222V9.42857C4.72222 6.49524 7.04444 4.19048 10 4.19048C10.1056 2.82857 10.7389 1.67619 11.5833 0.733333C11.2667 0.314286 10.6333 0 10 0C8.83889 0 7.88889 0.942857 7.88889 2.09524V2.40952C4.72222 3.35238 2.61111 6.18095 2.61111 9.42857V15.7143L0.5 17.8095V18.8571H19.5V17.8095L17.3889 15.7143ZM7.88889 19.9048C7.88889 21.0571 8.83889 22 10 22C11.1611 22 12.1111 21.0571 12.1111 19.9048H7.88889Z"
          fill="#7E7E7E"/>
</svg>
