<svg width="16" height="19" viewBox="0 0 16 19" fill="none" xmlns="http://www.w3.org/2000/svg">
<path d="M15.1557 5.33385H11.0494C10.5452 5.33385 10.1371 4.93628 10.1371 4.4471V0.45813M15.1557 5.33385V16.8577C15.1557 17.3468 14.7476 17.7438 14.2434 17.7438H1.92396C1.42039 17.7438 1.01172 17.3474 1.01172 16.8577V1.34431C1.01172 0.855125 1.4198 0.45813 1.92396 0.45813H10.1371M15.1557 5.33385L10.1371 0.45813M12.843 9.3378H10.7937V13.3118M10.7937 11.3251H12.1307" stroke="#3DCE15" stroke-width="0.547737" stroke-linecap="round" stroke-linejoin="round"/>
<path d="M3.32471 13.3033V9.32988H4.70138C4.88166 9.3298 5.06019 9.36422 5.22678 9.43117C5.39337 9.49812 5.54475 9.59629 5.67228 9.72007C5.79981 9.84385 5.901 9.99082 5.97006 10.1526C6.03912 10.3144 6.07471 10.4878 6.07479 10.6629C6.07487 10.838 6.03943 11.0115 5.97052 11.1733C5.9016 11.3351 5.80054 11.4822 5.67312 11.6061C5.5457 11.7299 5.3944 11.8282 5.22787 11.8953C5.06135 11.9624 4.88285 11.997 4.70256 11.9971H3.32471M7.05969 13.3114V9.32239H7.75604C8.30049 9.32239 8.82263 9.53249 9.20762 9.90647C9.5926 10.2805 9.80888 10.7877 9.80888 11.3166C9.80896 11.5785 9.75592 11.8379 9.65279 12.0799C9.54966 12.3219 9.39846 12.5418 9.20783 12.7271C9.0172 12.9123 8.79087 13.0592 8.54176 13.1595C8.29266 13.2598 8.02567 13.3114 7.75604 13.3114H7.05969Z" stroke="#3DCE15" stroke-width="0.547737" stroke-linecap="round" stroke-linejoin="round"/>
</svg>
