<svg width="23" height="22" viewBox="0 0 23 22" fill="none" xmlns="http://www.w3.org/2000/svg">
  <g clip-path="url(#clip0_2334_9705)">
    <path
      d="M20.9286 5.5H16.2143V1.83333C16.2143 1.3471 16.0487 0.880787 15.754 0.536971C15.4593 0.193154 15.0596 0 14.6429 0H8.35714C7.94037 0 7.54068 0.193154 7.24598 0.536971C6.95128 0.880787 6.78571 1.3471 6.78571 1.83333V5.5H2.07143C1.65466 5.5 1.25496 5.69315 0.960261 6.03697C0.665561 6.38079 0.5 6.8471 0.5 7.33333V20.1667C0.5 20.6529 0.665561 21.1192 0.960261 21.463C1.25496 21.8068 1.65466 22 2.07143 22H20.9286C21.3453 22 21.745 21.8068 22.0397 21.463C22.3344 21.1192 22.5 20.6529 22.5 20.1667V7.33333C22.5 6.8471 22.3344 6.38079 22.0397 6.03697C21.745 5.69315 21.3453 5.5 20.9286 5.5ZM8.35714 1.83333H14.6429V5.5H8.35714V1.83333ZM2.07143 20.1667V7.33333H20.9286V20.1667H2.07143Z"
      fill="currentColor" />
  </g>
  <defs>
    <clipPath id="clip0_2334_9705">
      <rect width="22" height="22" fill="white" transform="translate(0.5)" />
    </clipPath>
  </defs>
</svg>