<svg width="22" height="22" viewBox="0 0 22 22" fill="none" xmlns="http://www.w3.org/2000/svg">
    <path d="M1.22217 18.3342C1.22217 17.0376 1.73725 15.7941 2.65409 14.8772C3.57093 13.9604 4.81444 13.4453 6.11106 13.4453H15.8888C17.1854 13.4453 18.429 13.9604 19.3458 14.8772C20.2626 15.7941 20.7777 17.0376 20.7777 18.3342C20.7777 18.9825 20.5202 19.6043 20.0618 20.0627C19.6033 20.5211 18.9816 20.7786 18.3333 20.7786H3.66661C3.01831 20.7786 2.39655 20.5211 1.93813 20.0627C1.47971 19.6043 1.22217 18.9825 1.22217 18.3342Z"
          stroke="currentColor" stroke-width="1.83333" stroke-linejoin="round"/>
    <path d="M11.0002 8.55599C13.0252 8.55599 14.6668 6.91437 14.6668 4.88932C14.6668 2.86428 13.0252 1.22266 11.0002 1.22266C8.97512 1.22266 7.3335 2.86428 7.3335 4.88932C7.3335 6.91437 8.97512 8.55599 11.0002 8.55599Z"
          stroke="currentColor" stroke-width="1.83333"/>
</svg>
