<svg width="85" height="29" viewBox="0 0 85 29" fill="none" xmlns="http://www.w3.org/2000/svg">
    <g clip-path="url(#clip0_1641_130)">
        <path d="M52.4701 3.78931V0H56.7651L56.7968 3.81906L52.4701 3.78931ZM36.253 29C35.5257 29 34.8407 28.8458 34.198 28.5375C33.5554 28.2292 33.037 27.7775 32.643 27.1851C32.2489 26.5901 32.0506 25.8788 32.0506 25.0511C32.0506 24.118 32.315 23.3688 32.844 22.8062C33.3729 22.2436 33.9706 21.8244 34.6344 21.5485C34.1584 21.2726 33.767 20.9129 33.4681 20.4666C33.1666 20.0203 33.0159 19.501 33.0159 18.906C33.0159 18.0783 33.3121 17.4049 33.9018 16.8856C34.4942 16.3663 35.1739 16.0309 35.9409 15.8821C35.1739 15.3953 34.5762 14.7732 34.1504 14.0186C33.7246 13.2639 33.5131 12.4228 33.5131 11.4869C33.5131 10.2779 33.8093 9.25825 34.399 8.43061C34.9914 7.60297 35.8404 6.97277 36.9511 6.53731C38.0619 6.10185 39.3737 5.88547 40.8891 5.88547C41.4921 5.88547 42.0554 5.91793 42.5843 5.98013C43.1133 6.04505 43.5972 6.15053 44.031 6.29929C44.7979 5.83138 45.3216 5.31748 45.6019 4.7549C45.8822 4.19232 46.033 3.74063 46.0541 3.40254H50.0688C50.0688 4.18691 49.9286 4.86579 49.6483 5.43919C49.3679 6.01259 48.9686 6.48321 48.4502 6.85646C47.9319 7.22701 47.3077 7.49748 46.5831 7.66788C47.1226 8.1358 47.5378 8.69838 47.8287 9.35562C48.1196 10.0129 48.2651 10.7242 48.2651 11.4896C48.2651 12.677 47.9848 13.6913 47.4241 14.5298C46.8634 15.3682 46.07 16.0092 45.0439 16.4555C44.0177 16.9018 42.788 17.1236 41.3545 17.1236H38.8633C38.3661 17.1236 37.9905 17.2128 37.7419 17.394C37.4933 17.5753 37.369 17.8349 37.369 18.173C37.369 18.4489 37.4774 18.6869 37.6969 18.8898C37.9138 19.0926 38.2735 19.1927 38.7707 19.1927H45.5887C46.9586 19.1927 48.0535 19.6227 48.8734 20.4828C49.6932 21.3429 50.1031 22.4411 50.1031 23.7772C50.1031 24.7969 49.844 25.6975 49.3256 26.4819C48.8072 27.2663 48.0905 27.8829 47.1781 28.3292C46.2657 28.7755 45.2184 28.9973 44.0336 28.9973H36.253V29ZM38.0593 26.041H43.8167C44.1896 26.041 44.5229 25.9734 44.8138 25.8328C45.1047 25.6948 45.3321 25.5028 45.4988 25.2594C45.6654 25.0159 45.7474 24.7347 45.7474 24.4155C45.7474 23.8637 45.5807 23.4499 45.2502 23.174C44.9169 22.8982 44.5044 22.7602 44.0045 22.7602H38.0593C37.5621 22.7602 37.1521 22.909 36.8295 23.2065C36.5068 23.504 36.3482 23.8962 36.3482 24.383C36.3482 24.8699 36.5095 25.2702 36.8295 25.5758C37.1495 25.8869 37.5594 26.041 38.0593 26.041ZM40.8917 14.262C41.9073 14.262 42.6822 14.024 43.2111 13.5452C43.74 13.0665 44.0045 12.3822 44.0045 11.4924C44.0045 10.5998 43.74 9.9155 43.2111 9.43947C42.6822 8.96074 41.9099 8.72272 40.8917 8.72272C39.8947 8.72272 39.133 8.96074 38.6041 9.43947C38.0751 9.91821 37.8107 10.6025 37.8107 11.4924C37.8107 12.0658 37.9244 12.5634 38.1518 12.9881C38.3793 13.4127 38.7231 13.7319 39.178 13.9428C39.6355 14.1565 40.2067 14.262 40.8917 14.262ZM2.63379 23.0172V1.17655H11.3507C13.5722 1.17655 15.4605 1.56874 17.0156 2.35311C18.5733 3.13747 19.7713 4.33296 20.6097 5.93415C21.448 7.53535 21.8712 9.59093 21.8712 12.0928C21.8712 14.5757 21.4507 16.6232 20.6097 18.2379C19.7687 19.8526 18.5706 21.0508 17.0156 21.8352C15.4578 22.6196 13.5695 23.0118 11.3507 23.0118H2.63379V23.0172ZM7.27256 19.1007H11.3189C12.2525 19.1007 13.0829 18.9628 13.8102 18.6869C14.5375 18.411 15.1378 18.0026 15.6165 17.4617C16.0926 16.9207 16.4575 16.2418 16.7061 15.425C16.9547 14.6082 17.079 13.6588 17.079 12.5769V11.6222C17.079 10.5403 16.9547 9.59093 16.7061 8.77411C16.4575 7.95728 16.0952 7.2784 15.6165 6.73746C15.1405 6.19651 14.5375 5.78269 13.8102 5.49599C13.0829 5.20929 12.2551 5.06594 11.3189 5.06594H7.27256V19.1007ZM25.2643 23.0172V6.27224H29.5593L29.591 23.0172H25.2643ZM25.2643 3.78931V0H29.5593L29.591 3.81906L25.2643 3.78931ZM52.4701 23.0172V6.27224H56.7651L56.7968 23.0172H52.4701Z"
              fill="#FDFDFD"/>
        <path d="M76.6243 19.9608C77.579 19.9608 78.3407 19.7796 78.9119 19.4199C79.4832 19.0602 79.9037 18.5084 80.1735 17.7646C80.4432 17.0208 80.5781 16.1093 80.5781 15.0274V14.2647C80.5781 13.1828 80.4432 12.2686 80.1735 11.5275C79.9037 10.7837 79.4832 10.2265 78.9119 9.856C78.3407 9.48545 77.579 9.29883 76.6243 9.29883C75.6907 9.29883 74.937 9.48545 74.3684 9.856C73.7971 10.2265 73.3766 10.7837 73.1069 11.5275C72.8371 12.2713 72.7022 13.1828 72.7022 14.2647V15.0274C72.7022 16.1093 72.8371 17.0235 73.1069 17.7646C73.3766 18.5084 73.7971 19.0602 74.3684 19.4199C74.9396 19.7796 75.6907 19.9608 76.6243 19.9608ZM76.6243 23.3985C74.8391 23.3985 73.3237 23.0848 72.0807 22.46C70.8351 21.8352 69.8909 20.8696 69.2483 19.5632C68.6056 18.2569 68.283 16.6178 68.283 14.6461C68.283 12.631 68.6056 10.9812 69.2483 9.69642C69.8909 8.41168 70.8351 7.45691 72.0807 6.83212C73.3264 6.20733 74.8418 5.89358 76.6243 5.89358C78.4518 5.89358 79.9804 6.20733 81.2155 6.83212C82.4505 7.45691 83.3894 8.41438 84.032 9.69642C84.6747 10.9812 84.9974 12.631 84.9974 14.6461C84.9974 16.6205 84.6747 18.2596 84.032 19.5632C83.3894 20.8696 82.4505 21.8352 81.2155 22.46C79.983 23.0848 78.4518 23.3985 76.6243 23.3985ZM60.7827 23.0172V0H65.0776L65.1094 23.0172H60.7827ZM0 13.5777V9.78838H9.81705L9.88846 13.6074L0 13.5777Z"
              fill="#55F230"/>
    </g>
    <defs>
        <clipPath id="clip0_1641_130">
            <rect width="85" height="29" fill="white"/>
        </clipPath>
    </defs>
</svg>
